<svg width="24" height="24" viewBox="0 0 24 24" fill="none" xmlns="http://www.w3.org/2000/svg">
<path d="M15.8101 20.1805C15.5501 20.1805 15.2801 20.1705 14.9901 20.1405C14.4701 20.1005 13.8801 20.0005 13.2701 19.8505L11.5901 19.4505C6.98007 18.3605 5.47007 15.9205 6.55007 11.3205L7.53007 7.1305C7.75007 6.1805 8.01007 5.4105 8.33007 4.7705C10.0501 1.2205 13.3401 1.5405 15.6801 2.0905L17.3501 2.4805C19.6901 3.0305 21.1701 3.9005 22.0001 5.2305C22.8201 6.5605 22.9501 8.2705 22.4001 10.6105L21.4201 14.7905C20.5601 18.4505 18.7701 20.1805 15.8101 20.1805ZM13.1201 3.2505C11.4501 3.2505 10.3901 3.9405 9.68007 5.4205C9.42007 5.9605 9.19007 6.6305 8.99007 7.4705L8.01007 11.6605C7.12007 15.4405 8.15007 17.0905 11.9301 17.9905L13.6101 18.3905C14.1501 18.5205 14.6601 18.6005 15.1201 18.6405C17.8401 18.9105 19.1901 17.7205 19.9501 14.4505L20.9301 10.2705C21.3801 8.3405 21.3201 6.9905 20.7201 6.0205C20.1201 5.0505 18.9401 4.3905 17.0001 3.9405L15.3301 3.5505C14.5001 3.3505 13.7601 3.2505 13.1201 3.2505Z" fill="#AEAEAE"/>
<path d="M8.33005 22.2497C5.76005 22.2497 4.12005 20.7097 3.07005 17.4597L1.79005 13.5097C0.370052 9.10968 1.64005 6.62968 6.02005 5.20968L7.60005 4.69968C8.12005 4.53968 8.51005 4.42968 8.86005 4.36968C9.15005 4.30968 9.43005 4.41968 9.60005 4.64968C9.77005 4.87968 9.80005 5.17968 9.68005 5.43968C9.42005 5.96968 9.19005 6.63968 9.00005 7.47968L8.02005 11.6697C7.13005 15.4497 8.16005 17.0997 11.9401 17.9997L13.6201 18.3997C14.1601 18.5297 14.6701 18.6097 15.1301 18.6497C15.4501 18.6797 15.7101 18.8997 15.8001 19.2097C15.8801 19.5197 15.7601 19.8397 15.5001 20.0197C14.8401 20.4697 14.0101 20.8497 12.9601 21.1897L11.3801 21.7097C10.2301 22.0697 9.23005 22.2497 8.33005 22.2497ZM7.78005 6.21968L6.49005 6.63968C2.92005 7.78968 2.07005 9.46968 3.22005 13.0497L4.50005 16.9997C5.66005 20.5697 7.34005 21.4297 10.9101 20.2797L12.4901 19.7597C12.5501 19.7397 12.6001 19.7197 12.6601 19.6997L11.6001 19.4497C6.99005 18.3597 5.48005 15.9197 6.56005 11.3197L7.54005 7.12968C7.61005 6.80968 7.69005 6.49968 7.78005 6.21968Z" fill="#AEAEAE"/>
<path d="M17.4899 10.5098C17.4299 10.5098 17.3699 10.4998 17.2999 10.4898L12.4499 9.25978C12.0499 9.15978 11.8099 8.74978 11.9099 8.34978C12.0099 7.94978 12.4199 7.70978 12.8199 7.80978L17.6699 9.03978C18.0699 9.13978 18.3099 9.54978 18.2099 9.94978C18.1299 10.2798 17.8199 10.5098 17.4899 10.5098Z" fill="#AEAEAE"/>
<path d="M14.5601 13.8909C14.5001 13.8909 14.4401 13.8809 14.3701 13.8709L11.4601 13.1309C11.0601 13.0309 10.8201 12.6209 10.9201 12.2209C11.0201 11.8209 11.4301 11.5809 11.8301 11.6809L14.7401 12.4209C15.1401 12.5209 15.3801 12.9309 15.2801 13.3309C15.2001 13.6709 14.9001 13.8909 14.5601 13.8909Z" fill="#AEAEAE"/>
</svg>
