<svg width="32" height="32" viewBox="0 0 32 32" fill="none" xmlns="http://www.w3.org/2000/svg">
<rect x="0.25" y="0.25" width="31.5" height="31.5" rx="1.75" stroke="#C2C2C2" stroke-width="0.5"/>
<path d="M19 26.75H13C7.57 26.75 5.25 24.43 5.25 19V13C5.25 7.57 7.57 5.25 13 5.25H19C24.43 5.25 26.75 7.57 26.75 13V19C26.75 24.43 24.43 26.75 19 26.75ZM13 6.75C8.39 6.75 6.75 8.39 6.75 13V19C6.75 23.61 8.39 25.25 13 25.25H19C23.61 25.25 25.25 23.61 25.25 19V13C25.25 8.39 23.61 6.75 19 6.75H13Z" fill="#292D32"/>
<path d="M14.5799 19.5796C14.3799 19.5796 14.1899 19.4996 14.0499 19.3596L11.2199 16.5296C10.9299 16.2396 10.9299 15.7596 11.2199 15.4696C11.5099 15.1796 11.9899 15.1796 12.2799 15.4696L14.5799 17.7696L19.7199 12.6296C20.0099 12.3396 20.4899 12.3396 20.7799 12.6296C21.0699 12.9196 21.0699 13.3996 20.7799 13.6896L15.1099 19.3596C14.9699 19.4996 14.7799 19.5796 14.5799 19.5796Z" fill="#292D32"/>
</svg>
