<svg width="24" height="24" viewBox="0 0 24 24" fill="none" xmlns="http://www.w3.org/2000/svg">
<path fill-rule="evenodd" clip-rule="evenodd" d="M10.9 3.53711C6.82632 3.53711 3.52393 6.8395 3.52393 10.9132C3.52393 14.9869 6.82632 18.2893 10.9 18.2893C14.9737 18.2893 18.2761 14.9869 18.2761 10.9132C18.2761 6.8395 14.9737 3.53711 10.9 3.53711ZM2.02393 10.9132C2.02393 6.01108 5.99789 2.03711 10.9 2.03711C15.8022 2.03711 19.7761 6.01108 19.7761 10.9132C19.7761 15.8153 15.8022 19.7893 10.9 19.7893C5.99789 19.7893 2.02393 15.8153 2.02393 10.9132Z" fill="#5C5F61"/>
<path fill-rule="evenodd" clip-rule="evenodd" d="M19.2285 20.6022L16.0823 17.4564C15.7894 17.1635 15.7894 16.6887 16.0823 16.3957C16.3752 16.1028 16.85 16.1028 17.1429 16.3957L20.2891 19.5415C20.582 19.8344 20.582 20.3093 20.2891 20.6022C19.9962 20.8951 19.5214 20.8951 19.2285 20.6022Z" fill="#5C5F61"/>
</svg>
