<svg width="42" height="112" viewBox="0 0 42 112" fill="none" xmlns="http://www.w3.org/2000/svg">
<mask id="path-1-outside-1_2515_12354" maskUnits="userSpaceOnUse" x="-0.114258" y="-0.761719" width="42" height="112" fill="black">
<rect fill="white" x="-0.114258" y="-0.761719" width="42" height="112"/>
<path d="M40.4795 110.238H19.8467C19.7972 100.095 19.4014 90.694 18.6592 82.0352C17.9665 73.3763 16.8532 65.0885 15.3193 57.1719C13.835 49.2057 11.93 41.2643 9.60449 33.3477C7.32845 25.431 4.55762 17.168 1.29199 8.55859L20.8857 1.28516C25.3389 13.3086 28.9756 24.9362 31.7959 36.168C34.6657 47.3997 36.7933 59.0026 38.1787 70.9766C39.6136 82.901 40.3805 95.9883 40.4795 110.238Z"/>
</mask>
<path d="M40.4795 110.238V111.238H41.4865L41.4795 110.231L40.4795 110.238ZM19.8467 110.238L18.8467 110.243L18.8515 111.238H19.8467V110.238ZM18.6592 82.0352L17.6623 82.1149L17.6628 82.1206L18.6592 82.0352ZM15.3193 57.1719L14.3362 57.3551L14.3376 57.3621L15.3193 57.1719ZM9.60449 33.3477L8.64341 33.624L8.64503 33.6295L9.60449 33.3477ZM1.29199 8.55859L0.943984 7.6211L-0.000185966 7.97159L0.356995 8.91325L1.29199 8.55859ZM20.8857 1.28516L21.8235 0.937841L21.4759 -0.000600815L20.5377 0.347664L20.8857 1.28516ZM31.7959 36.168L30.826 36.4115L30.827 36.4155L31.7959 36.168ZM38.1787 70.9766L37.1853 71.0915L37.1859 71.096L38.1787 70.9766ZM40.4795 109.238H19.8467V111.238H40.4795V109.238ZM20.8467 110.233C20.7971 100.068 20.4004 90.6394 19.6555 81.9498L17.6628 82.1206C18.4024 90.7486 18.7973 100.122 18.8467 110.243L20.8467 110.233ZM19.656 81.9554C18.9605 73.2623 17.8425 64.9375 16.3011 56.9817L14.3376 57.3621C15.8639 65.2396 16.9724 73.4903 17.6624 82.1149L19.656 81.9554ZM16.3024 56.9887C14.8117 48.9887 12.8988 41.0144 10.564 33.0658L8.64503 33.6295C10.9612 41.5143 12.8582 49.4228 14.3363 57.3551L16.3024 56.9887ZM10.5656 33.0713C8.28109 25.1254 5.50126 16.8361 2.22699 8.20394L0.356995 8.91325C3.61397 17.4998 6.37581 25.7366 8.64342 33.624L10.5656 33.0713ZM1.64 9.49609L21.2338 2.22265L20.5377 0.347664L0.943984 7.6211L1.64 9.49609ZM19.948 1.63247C24.3898 13.6255 28.0154 25.2184 30.826 36.4115L32.7658 35.9244C29.9358 24.654 26.2879 12.9917 21.8235 0.937841L19.948 1.63247ZM30.827 36.4155C33.6852 47.602 35.8049 59.1605 37.1853 71.0915L39.1721 70.8616C37.7817 58.8447 35.6461 47.1975 32.7648 35.9204L30.827 36.4155ZM37.1859 71.096C38.6155 82.9771 39.3808 96.0261 39.4795 110.245L41.4795 110.231C41.3803 95.9504 40.6117 82.825 39.1715 70.8571L37.1859 71.096Z" fill="#0B2FA6" mask="url(#path-1-outside-1_2515_12354)"/>
</svg>
