<svg width="80" height="112" viewBox="0 0 80 112" fill="none" xmlns="http://www.w3.org/2000/svg">
<mask id="path-1-outside-1_2515_17995" maskUnits="userSpaceOnUse" x="-0.347656" y="-0.755859" width="80" height="112" fill="black">
<rect fill="white" x="-0.347656" y="-0.755859" width="80" height="112"/>
<path d="M42.3984 35.0605C47.1484 35.0605 50.4635 33.403 52.3438 30.0879C54.2734 26.7233 55.6836 20.959 56.5742 12.7949L57.9844 1.88477L78.1719 5.00195C76.8359 16.3822 74.9557 25.8822 72.5312 33.502C70.1562 41.0723 66.8164 46.7624 62.5117 50.5723C58.207 54.3822 52.5417 56.2871 45.5156 56.2871C42.151 56.2871 39.0339 55.2233 36.1641 53.0957L35.6445 53.541C37.3268 62.3978 38.5143 71.4772 39.207 80.7793C39.9492 90.0319 40.3451 99.8535 40.3945 110.244H19.9102C19.8607 100.893 19.4896 92.0853 18.7969 83.8223C18.1536 75.5592 17.1146 67.4694 15.6797 59.5527C14.2943 51.6361 12.4141 43.5215 10.0391 35.209C7.66406 26.8965 4.74479 18.015 1.28125 8.56445L20.8008 1.29102L24.8828 12.6465C26.9609 18.3861 28.8164 22.8887 30.4492 26.1543C32.082 29.4199 33.8138 31.7207 35.6445 33.0566C37.5247 34.3926 39.776 35.0605 42.3984 35.0605Z"/>
</mask>
<path d="M52.3438 30.0879L51.4763 29.5904L51.4739 29.5946L52.3438 30.0879ZM56.5742 12.7949L55.5825 12.6667L55.5812 12.6766L55.5801 12.6865L56.5742 12.7949ZM57.9844 1.88477L58.137 0.896479L57.124 0.740065L56.9926 1.75658L57.9844 1.88477ZM78.1719 5.00195L79.1651 5.11854L79.2775 4.16082L78.3245 4.01367L78.1719 5.00195ZM72.5312 33.502L71.5783 33.1987L71.5771 33.2026L72.5312 33.502ZM36.1641 53.0957L36.7596 52.2924L36.1189 51.8174L35.5133 52.3364L36.1641 53.0957ZM35.6445 53.541L34.9937 52.7818L34.554 53.1587L34.6621 53.7276L35.6445 53.541ZM39.207 80.7793L38.2098 80.8536L38.2102 80.8593L39.207 80.7793ZM40.3945 110.244V111.244H41.3993L41.3945 110.239L40.3945 110.244ZM19.9102 110.244L18.9102 110.249L18.9154 111.244H19.9102V110.244ZM18.7969 83.8223L17.7999 83.8999L17.8004 83.9058L18.7969 83.8223ZM15.6797 59.5527L14.6946 59.7251L14.6957 59.7311L15.6797 59.5527ZM1.28125 8.56445L0.93208 7.62739L6.19888e-05 7.97469L0.342321 8.90856L1.28125 8.56445ZM20.8008 1.29102L21.7418 0.952732L21.3996 0.000715256L20.4516 0.353956L20.8008 1.29102ZM24.8828 12.6465L23.9418 12.9848L23.9425 12.9869L24.8828 12.6465ZM35.6445 33.0566L35.055 33.8645L35.0653 33.8718L35.6445 33.0566ZM42.3984 36.0605C47.4047 36.0605 51.1099 34.2904 53.2136 30.5812L51.4739 29.5946C49.8172 32.5156 46.8922 34.0605 42.3984 34.0605V36.0605ZM53.2112 30.5854C55.251 27.0288 56.6758 21.0852 57.5683 12.9034L55.5801 12.6865C54.6914 20.8328 53.2958 26.4178 51.4763 29.5904L53.2112 30.5854ZM57.566 12.9231L58.9761 2.01295L56.9926 1.75658L55.5825 12.6667L57.566 12.9231ZM57.8318 2.87305L78.0193 5.99024L78.3245 4.01367L58.137 0.896479L57.8318 2.87305ZM77.1787 4.88536C75.8473 16.2269 73.9771 25.6596 71.5783 33.1987L73.4842 33.8052C75.9343 26.1047 77.8246 16.5374 79.1651 5.11854L77.1787 4.88536ZM71.5771 33.2026C69.2367 40.6626 65.9751 46.1715 61.849 49.8234L63.1745 51.3211C67.6577 47.3532 71.0758 41.4819 73.4854 33.8013L71.5771 33.2026ZM61.849 49.8234C57.7655 53.4375 52.3542 55.2871 45.5156 55.2871V57.2871C52.7291 57.2871 58.6485 55.3268 63.1745 51.3211L61.849 49.8234ZM45.5156 55.2871C42.3792 55.2871 39.4685 54.3007 36.7596 52.2924L35.5685 53.899C38.5993 56.146 41.9229 57.2871 45.5156 57.2871V55.2871ZM35.5133 52.3364L34.9937 52.7818L36.2953 54.3003L36.8149 53.855L35.5133 52.3364ZM34.6621 53.7276C36.3371 62.546 37.5198 71.5879 38.2098 80.8536L40.2043 80.705C39.5089 71.3666 38.3166 62.2496 36.627 53.3544L34.6621 53.7276ZM38.2102 80.8593C38.9502 90.0841 39.3452 99.8805 39.3945 110.249L41.3945 110.239C41.3449 99.8266 40.9482 89.9797 40.2038 80.6993L38.2102 80.8593ZM40.3945 109.244H19.9102V111.244H40.3945V109.244ZM20.9101 110.239C20.8605 100.864 20.4885 92.0308 19.7934 83.7387L17.8004 83.9058C18.4906 92.1398 18.8608 100.921 18.9102 110.249L20.9101 110.239ZM19.7939 83.7447C19.1481 75.4489 18.1048 67.3254 16.6637 59.3744L14.6957 59.7311C16.1244 67.6134 17.1592 75.6696 17.7999 83.8999L19.7939 83.7447ZM16.6647 59.3804C15.2728 51.4267 13.3845 43.2779 11.0006 34.9343L9.07754 35.4837C11.4436 43.765 13.3157 51.8454 14.6947 59.7251L16.6647 59.3804ZM11.0006 34.9343C8.61792 26.5949 5.69077 17.6901 2.22018 8.22034L0.342321 8.90856C3.79881 18.3398 6.7102 27.198 9.07754 35.4837L11.0006 34.9343ZM1.63042 9.50151L21.15 2.22808L20.4516 0.353956L0.93208 7.62739L1.63042 9.50151ZM19.8597 1.6293L23.9418 12.9848L25.8239 12.3082L21.7418 0.952732L19.8597 1.6293ZM23.9425 12.9869C26.0264 18.7423 27.897 23.2859 29.5548 26.6015L31.3436 25.7071C29.7358 22.4914 27.8955 18.0299 25.8231 12.306L23.9425 12.9869ZM29.5548 26.6015C31.2201 29.9321 33.0398 32.3938 35.0551 33.8644L36.234 32.2488C34.5878 31.0476 32.944 28.9077 31.3436 25.7071L29.5548 26.6015ZM35.0653 33.8718C37.1373 35.344 39.598 36.0605 42.3984 36.0605V34.0605C39.9541 34.0605 37.9122 33.4411 36.2237 32.2415L35.0653 33.8718Z" fill="#0B2FA6" mask="url(#path-1-outside-1_2515_17995)"/>
</svg>
