<svg width="101" height="112" viewBox="0 0 101 112" fill="none" xmlns="http://www.w3.org/2000/svg">
<mask id="path-1-outside-1_2515_17994" maskUnits="userSpaceOnUse" x="-0.430664" y="-0.736328" width="102" height="112" fill="black">
<rect fill="white" x="-0.430664" y="-0.736328" width="102" height="112"/>
<path d="M54.874 43.9121C53.5876 47.6725 51.8805 50.4928 49.7529 52.373C47.6748 54.2038 44.805 55.1191 41.1436 55.1191C39.9561 55.1191 38.9417 54.9212 38.1006 54.5254C37.3089 54.0801 36.4925 53.4616 35.6514 52.6699L35.0576 53.1895C36.6904 62.4421 37.8779 71.6452 38.6201 80.7988C39.3623 89.903 39.7581 99.7246 39.8076 110.264H19.249C19.1995 97.696 18.5563 85.8952 17.3193 74.8613C16.1318 63.778 14.2269 52.8431 11.6045 42.0566C9.03158 31.2207 5.59277 19.9642 1.28809 8.28711L20.8076 1.31055L26.0029 19.1973C27.7347 24.3926 29.417 28.0788 31.0498 30.2559C32.6826 32.4329 34.8597 33.5215 37.5811 33.5215C40.4508 33.5215 42.5537 32.4082 43.8896 30.1816C45.2256 27.9551 46.042 24.5658 46.3389 20.0137C46.4378 17.1934 46.512 14.7689 46.5615 12.7402C46.611 10.6621 46.611 8.48503 46.5615 6.20898L63.2607 6.2832C63.0628 9.49935 62.8896 12.1465 62.7412 14.2246C62.5928 16.2533 62.5186 18.8014 62.5186 21.8691C62.5186 25.7285 63.236 28.6478 64.6709 30.627C66.1553 32.5566 68.6045 33.5215 72.0186 33.5215C75.2347 33.5215 77.4118 32.5566 78.5498 30.627C79.7373 28.6478 80.3311 25.7038 80.3311 21.7949C80.3311 16.946 79.762 11.2311 78.624 4.65039L97.7725 1.16211C99.2074 8.73242 99.9248 15.2637 99.9248 20.7559C99.9248 31.5918 97.624 40.028 93.0225 46.0645C88.4704 52.1009 81.8402 55.1191 73.1318 55.1191C68.9261 55.1191 65.4131 54.179 62.5928 52.2988C59.7725 50.4186 57.4469 47.623 55.6162 43.9121H54.874Z"/>
</mask>
<path d="M54.874 43.9121V42.9121H54.1592L53.9279 43.5884L54.874 43.9121ZM49.7529 52.373L50.414 53.1234L50.4151 53.1224L49.7529 52.373ZM38.1006 54.5254L37.6103 55.397L37.642 55.4148L37.6748 55.4302L38.1006 54.5254ZM35.6514 52.6699L36.3367 51.9417L35.6759 51.3197L34.9929 51.9173L35.6514 52.6699ZM35.0576 53.1895L34.3991 52.4369L33.9749 52.8081L34.0728 53.3632L35.0576 53.1895ZM38.6201 80.7988L37.6234 80.8796L37.6234 80.8801L38.6201 80.7988ZM39.8076 110.264V111.264H40.8123L40.8076 110.259L39.8076 110.264ZM19.249 110.264L18.249 110.268L18.253 111.264H19.249V110.264ZM17.3193 74.8613L16.325 74.9679L16.3256 74.9727L17.3193 74.8613ZM11.6045 42.0566L10.6315 42.2877L10.6328 42.2929L11.6045 42.0566ZM1.28809 8.28711L0.951523 7.34545L0.000472069 7.68537L0.349811 8.633L1.28809 8.28711ZM20.8076 1.31055L21.7679 1.03162L21.4716 0.0112877L20.4711 0.368887L20.8076 1.31055ZM26.0029 19.1973L25.0426 19.4762L25.0481 19.495L25.0542 19.5135L26.0029 19.1973ZM46.3389 20.0137L47.3367 20.0788L47.3377 20.0638L47.3383 20.0487L46.3389 20.0137ZM46.5615 12.7402L47.5612 12.7646L47.5612 12.764L46.5615 12.7402ZM46.5615 6.20898L46.566 5.20899L45.5394 5.20443L45.5618 6.23072L46.5615 6.20898ZM63.2607 6.2832L64.2589 6.34463L64.3239 5.28792L63.2652 5.28321L63.2607 6.2832ZM62.7412 14.2246L63.7385 14.2976L63.7387 14.2959L62.7412 14.2246ZM64.6709 30.627L63.8613 31.2139L63.8696 31.2254L63.8783 31.2367L64.6709 30.627ZM78.5498 30.627L77.6923 30.1124L77.6884 30.119L78.5498 30.627ZM78.624 4.65039L78.4448 3.66658L77.4698 3.8442L77.6386 4.82079L78.624 4.65039ZM97.7725 1.16211L98.755 0.975883L98.5701 0.000352859L97.5932 0.178301L97.7725 1.16211ZM93.0225 46.0645L92.2272 45.4582L92.224 45.4624L93.0225 46.0645ZM55.6162 43.9121L56.513 43.4697L56.2379 42.9121H55.6162V43.9121ZM53.9279 43.5884C52.6762 47.247 51.0466 49.8952 49.0907 51.6237L50.4151 53.1224C52.7144 51.0904 54.4989 48.0981 55.8202 44.2358L53.9279 43.5884ZM49.0919 51.6227C47.2485 53.2467 44.6413 54.1191 41.1436 54.1191V56.1191C44.9687 56.1191 48.1012 55.1609 50.414 53.1234L49.0919 51.6227ZM41.1436 54.1191C40.0638 54.1191 39.2027 53.9389 38.5264 53.6206L37.6748 55.4302C38.6807 55.9036 39.8483 56.1191 41.1436 56.1191V54.1191ZM38.5908 53.6538C37.8858 53.2572 37.134 52.6921 36.3367 51.9417L34.966 53.3981C35.851 54.2311 36.732 54.9029 37.6103 55.397L38.5908 53.6538ZM34.9929 51.9173L34.3991 52.4369L35.7161 53.942L36.3099 53.4225L34.9929 51.9173ZM34.0728 53.3632C35.7003 62.5858 36.8838 71.7579 37.6234 80.8796L39.6168 80.718C38.8721 71.5325 37.6805 62.2984 36.0424 53.0157L34.0728 53.3632ZM37.6234 80.8801C38.3632 89.9553 38.7583 99.7511 38.8076 110.268L40.8076 110.259C40.758 99.6981 40.3614 89.8507 39.6168 80.7176L37.6234 80.8801ZM39.8076 109.264H19.249V111.264H39.8076V109.264ZM20.249 110.26C20.1994 97.6607 19.5546 85.8237 18.3131 74.7499L16.3256 74.9727C17.5581 85.9666 18.1997 97.7312 18.249 110.268L20.249 110.26ZM18.3136 74.7548C17.1215 63.628 15.209 52.6497 12.5762 41.8204L10.6328 42.2929C13.2448 53.0365 15.1422 63.928 16.325 74.9679L18.3136 74.7548ZM12.5774 41.8256C9.99428 30.9465 6.54331 19.6516 2.22636 7.94122L0.349811 8.633C4.64223 20.2768 8.06888 31.4949 10.6315 42.2877L12.5774 41.8256ZM1.62465 9.22877L21.1442 2.25221L20.4711 0.368887L0.951523 7.34545L1.62465 9.22877ZM19.8473 1.58948L25.0426 19.4762L26.9632 18.9183L21.7679 1.03162L19.8473 1.58948ZM25.0542 19.5135C26.7928 24.7293 28.5158 28.5438 30.2498 30.8559L31.8498 29.6559C30.3182 27.6137 28.6766 24.0559 26.9516 18.881L25.0542 19.5135ZM30.2498 30.8559C32.0715 33.2847 34.5449 34.5215 37.5811 34.5215V32.5215C35.1745 32.5215 33.2938 31.5811 31.8498 29.6559L30.2498 30.8559ZM37.5811 34.5215C40.7577 34.5215 43.2087 33.2601 44.7471 30.6961L43.0322 29.6671C41.8987 31.5563 40.144 32.5215 37.5811 32.5215V34.5215ZM44.7471 30.6961C46.2054 28.2657 47.0362 24.6864 47.3367 20.0788L45.341 19.9486C45.0477 24.4451 44.2458 27.6444 43.0322 29.6671L44.7471 30.6961ZM47.3383 20.0487C47.4373 17.2261 47.5116 14.7979 47.5612 12.7646L45.5618 12.7159C45.5125 14.7399 45.4384 17.1606 45.3395 19.9786L47.3383 20.0487ZM47.5612 12.764C47.6111 10.6694 47.6111 8.47706 47.5613 6.18725L45.5618 6.23072C45.6109 8.49299 45.6109 10.6548 45.5618 12.7164L47.5612 12.764ZM46.5571 7.20897L63.2563 7.28319L63.2652 5.28321L46.566 5.20899L46.5571 7.20897ZM62.2626 6.22178C62.0648 9.43621 61.8919 12.0798 61.7438 14.1534L63.7387 14.2959C63.8874 12.2132 64.0608 9.56249 64.2589 6.34463L62.2626 6.22178ZM61.7439 14.1516C61.593 16.2134 61.5186 18.788 61.5186 21.8691H63.5186C63.5186 18.8149 63.5925 16.2931 63.7385 14.2976L61.7439 14.1516ZM61.5186 21.8691C61.5186 25.8262 62.2496 28.9909 63.8613 31.2139L65.4805 30.04C64.2224 28.3047 63.5186 25.6309 63.5186 21.8691H61.5186ZM63.8783 31.2367C65.6202 33.5012 68.4264 34.5215 72.0186 34.5215V32.5215C68.7826 32.5215 66.6904 31.6121 65.4635 30.0172L63.8783 31.2367ZM72.0186 34.5215C75.4187 34.5215 78.0211 33.492 79.4112 31.1349L77.6884 30.119C76.8024 31.6213 75.0507 32.5215 72.0186 32.5215V34.5215ZM79.4073 31.1414C80.7322 28.9333 81.3311 25.7739 81.3311 21.7949H79.3311C79.3311 25.6336 78.7424 28.3623 77.6923 30.1125L79.4073 31.1414ZM81.3311 21.7949C81.3311 16.8721 80.7538 11.0976 79.6094 4.47999L77.6386 4.82079C78.7703 11.3646 79.3311 17.0199 79.3311 21.7949H81.3311ZM78.8032 5.6342L97.9517 2.14592L97.5932 0.178301L78.4448 3.66658L78.8032 5.6342ZM96.79 1.34834C98.2175 8.87971 98.9248 15.3455 98.9248 20.7559H100.925C100.925 15.1819 100.197 8.58513 98.755 0.975883L96.79 1.34834ZM98.9248 20.7559C98.9248 31.4637 96.6497 39.6566 92.2272 45.4582L93.8177 46.6707C98.5983 40.3994 100.925 31.7199 100.925 20.7559H98.9248ZM92.224 45.4624C87.8913 51.2079 81.5805 54.1191 73.1318 54.1191V56.1191C82.0998 56.1191 89.0494 52.9939 93.8209 46.6665L92.224 45.4624ZM73.1318 54.1191C69.0758 54.1191 65.7679 53.2137 63.1475 51.4668L62.0381 53.1309C65.0583 55.1444 68.7764 56.1191 73.1318 56.1191V54.1191ZM63.1475 51.4668C60.5026 49.7035 58.2831 47.0576 56.513 43.4697L54.7194 44.3545C56.6108 48.1885 59.0423 51.1337 62.0381 53.1309L63.1475 51.4668ZM55.6162 42.9121H54.874V44.9121H55.6162V42.9121Z" fill="#0B2FA6" mask="url(#path-1-outside-1_2515_17994)"/>
</svg>
