<svg width="85" height="112" viewBox="0 0 85 112" fill="none" xmlns="http://www.w3.org/2000/svg">
<mask id="path-1-outside-1_2515_18114" maskUnits="userSpaceOnUse" x="-0.731445" y="-0.378906" width="85" height="112" fill="black">
<rect fill="white" x="-0.731445" y="-0.378906" width="85" height="112"/>
<path d="M31.5068 25.1211C34.1292 17.056 38.0628 11.0195 43.3076 7.01172C48.6019 3.00391 55.4053 1 63.7178 1C68.9626 1 74.9743 2.28646 81.7529 4.85938L75.8896 23.1914C71.0407 21.3607 66.3402 20.4453 61.7881 20.4453C56.3949 20.4453 51.9665 22.1276 48.5029 25.4922C45.0889 28.8073 43.3324 33.2109 43.2334 38.7031C44.0745 41.7214 46.1527 44.0964 49.4678 45.8281C52.7829 47.5599 56.9144 48.4258 61.8623 48.4258C64.7321 48.4258 67.5277 48.1784 70.249 47.6836C72.9704 47.1393 75.6175 46.3971 78.1904 45.457L82.8662 63.7148C75.4938 66.5352 68.7646 67.9453 62.6787 67.9453C57.1865 67.9453 52.3376 67.0547 48.1318 65.2734C43.9756 63.4922 39.8688 60.7214 35.8115 56.9609L35.1436 57.2578C36.2321 63.4922 37.098 69.3307 37.7412 74.7734C38.4339 80.1667 38.9287 85.7083 39.2256 91.3984C39.5719 97.0885 39.7451 103.496 39.7451 110.621H19.1865C19.137 97.5586 18.4938 85.4115 17.2568 74.1797C16.0199 62.9479 14.0902 52.013 11.4678 41.375C8.89486 30.6875 5.50553 19.6784 1.2998 8.34766L21.71 1.66797C23.4912 6.31901 25.0993 10.4258 26.5342 13.9883C27.9691 17.5013 29.3792 21.2122 30.7646 25.1211H31.5068Z"/>
</mask>
<path d="M31.5068 25.1211V26.1211H32.2332L32.4578 25.4303L31.5068 25.1211ZM43.3076 7.01172L42.704 6.2144L42.7004 6.21715L43.3076 7.01172ZM81.7529 4.85938L82.7054 5.16401L82.9942 4.26092L82.1078 3.92446L81.7529 4.85938ZM75.8896 23.1914L75.5364 24.1269L76.5214 24.4988L76.8421 23.496L75.8896 23.1914ZM48.5029 25.4922L49.1996 26.2096L49.1997 26.2095L48.5029 25.4922ZM43.2334 38.7031L42.2336 38.6851L42.2309 38.831L42.2701 38.9716L43.2334 38.7031ZM49.4678 45.8281L49.0048 46.7145L49.4678 45.8281ZM70.249 47.6836L70.4279 48.6675L70.4365 48.6659L70.4451 48.6642L70.249 47.6836ZM78.1904 45.457L79.1592 45.2089L78.885 44.1386L77.8472 44.5178L78.1904 45.457ZM82.8662 63.7148L83.2235 64.6488L84.0561 64.3303L83.8349 63.4668L82.8662 63.7148ZM48.1318 65.2734L47.7379 66.1926L47.7418 66.1943L48.1318 65.2734ZM35.8115 56.9609L36.4913 56.2275L36.0078 55.7794L35.4054 56.0471L35.8115 56.9609ZM35.1436 57.2578L34.7374 56.344L34.0242 56.661L34.1585 57.4298L35.1436 57.2578ZM37.7412 74.7734L36.7481 74.8908L36.7494 74.9008L37.7412 74.7734ZM39.2256 91.3984L38.2269 91.4505L38.2274 91.4592L39.2256 91.3984ZM39.7451 110.621V111.621H40.7451V110.621H39.7451ZM19.1865 110.621L18.1865 110.625L18.1903 111.621H19.1865V110.621ZM11.4678 41.375L10.4955 41.6091L10.4968 41.6143L11.4678 41.375ZM1.2998 8.34766L0.988766 7.39726L0.000432014 7.72071L0.362303 8.69564L1.2998 8.34766ZM21.71 1.66797L22.6438 1.31032L22.3034 0.421549L21.3989 0.717571L21.71 1.66797ZM26.5342 13.9883L25.6066 14.3619L25.6084 14.3664L26.5342 13.9883ZM30.7646 25.1211L29.8221 25.4552L30.0581 26.1211H30.7646V25.1211ZM32.4578 25.4303C35.0353 17.5034 38.8715 11.6601 43.9148 7.80629L42.7004 6.21715C37.2541 10.379 33.2232 16.6086 30.5558 24.8119L32.4578 25.4303ZM43.9112 7.80903C48.992 3.96281 55.5674 2 63.7178 2V0C55.2431 0 48.2118 2.045 42.704 6.21441L43.9112 7.80903ZM63.7178 2C68.8046 2 74.6925 3.24911 81.3981 5.79429L82.1078 3.92446C75.2561 1.3238 69.1205 0 63.7178 0V2ZM80.8005 4.55474L74.9372 22.8868L76.8421 23.496L82.7054 5.16401L80.8005 4.55474ZM76.2429 22.2559C71.2965 20.3884 66.4763 19.4453 61.7881 19.4453V21.4453C66.204 21.4453 70.7849 22.333 75.5364 24.1269L76.2429 22.2559ZM61.7881 19.4453C56.1678 19.4453 51.4788 21.2072 47.8061 24.7749L49.1997 26.2095C52.4541 23.048 56.6219 21.4453 61.7881 21.4453V19.4453ZM47.8063 24.7748C44.1733 28.3024 42.3365 32.973 42.2336 38.6851L44.2332 38.7211C44.3282 33.4489 46.0044 29.3122 49.1996 26.2096L47.8063 24.7748ZM42.2701 38.9716C43.1997 42.3072 45.4961 44.8816 49.0048 46.7145L49.9308 44.9418C46.8093 43.3111 44.9494 41.1355 44.1967 38.4347L42.2701 38.9716ZM49.0048 46.7145C52.5014 48.5411 56.8032 49.4258 61.8623 49.4258V47.4258C57.0256 47.4258 53.0644 46.5787 49.9308 44.9418L49.0048 46.7145ZM61.8623 49.4258C64.7898 49.4258 67.6454 49.1734 70.4279 48.6675L70.0701 46.6997C67.41 47.1834 64.6743 47.4258 61.8623 47.4258V49.4258ZM70.4451 48.6642C73.2158 48.11 75.9122 47.3541 78.5336 46.3963L77.8472 44.5178C75.3228 45.4401 72.7249 46.1686 70.0529 46.703L70.4451 48.6642ZM77.2217 45.7051L81.8975 63.9629L83.8349 63.4668L79.1592 45.2089L77.2217 45.7051ZM82.5089 62.7809C75.2184 65.5698 68.6122 66.9453 62.6787 66.9453V68.9453C68.9171 68.9453 75.7692 67.5005 83.2235 64.6488L82.5089 62.7809ZM62.6787 66.9453C57.294 66.9453 52.5819 66.0722 48.5218 64.3526L47.7418 66.1943C52.0933 68.0372 57.0791 68.9453 62.6787 68.9453V66.9453ZM48.5258 64.3543C44.4952 62.6269 40.4827 59.9269 36.4913 56.2275L35.1318 57.6944C39.2549 61.5158 43.4559 64.3574 47.7379 66.1926L48.5258 64.3543ZM35.4054 56.0471L34.7374 56.344L35.5497 58.1716L36.2177 57.8747L35.4054 56.0471ZM34.1585 57.4298C35.2443 63.6488 36.1074 69.4689 36.7481 74.8908L38.7343 74.6561C38.0886 69.1926 37.2199 63.3356 36.1287 57.0858L34.1585 57.4298ZM36.7494 74.9008C37.4387 80.2679 37.9313 85.7844 38.2269 91.4505L40.2242 91.3463C39.9261 85.6322 39.4291 80.0654 38.7331 74.646L36.7494 74.9008ZM38.2274 91.4592C38.5723 97.1248 38.7451 103.512 38.7451 110.621H40.7451C40.7451 103.481 40.5716 97.0523 40.2237 91.3377L38.2274 91.4592ZM39.7451 109.621H19.1865V111.621H39.7451V109.621ZM20.1865 110.617C20.1369 97.5248 19.4922 85.342 18.2508 74.0702L16.2628 74.2892C17.4954 85.4809 18.1372 97.5924 18.1865 110.625L20.1865 110.617ZM18.2508 74.0702C17.0092 62.7961 15.072 51.8177 12.4387 41.1357L10.4968 41.6143C13.1084 52.2083 15.0305 63.0998 16.2628 74.2892L18.2508 74.0702ZM12.44 41.1409C9.85692 30.4112 6.45552 19.364 2.23731 7.99968L0.362303 8.69564C4.55555 19.9927 7.9328 30.9638 10.4956 41.6091L12.44 41.1409ZM1.61084 9.29805L22.021 2.61837L21.3989 0.717571L0.988766 7.39726L1.61084 9.29805ZM20.7761 2.02562C22.5588 6.68053 24.169 10.7928 25.6066 14.3619L27.4618 13.6147C26.0295 10.0588 24.4236 5.95749 22.6438 1.31032L20.7761 2.02562ZM25.6084 14.3664C27.0369 17.8636 28.4415 21.5598 29.8221 25.4552L31.7072 24.787C30.317 20.8647 28.9013 17.139 27.4599 13.6102L25.6084 14.3664ZM30.7646 26.1211H31.5068V24.1211H30.7646V26.1211Z" fill="#0B2FA6" mask="url(#path-1-outside-1_2515_18114)"/>
</svg>
