<svg width="80" height="80" viewBox="0 0 80 80" fill="none" xmlns="http://www.w3.org/2000/svg">
<rect x="0.5" y="0.5" width="79" height="79" rx="15.5" fill="white"/>
<rect x="0.5" y="0.5" width="79" height="79" rx="15.5" stroke="#D7D7D7"/>
<path d="M32.9785 20.6602H47.0391C49.9134 20.6602 51.6285 21.4408 52.7197 22.5635C53.6894 23.5612 54.2217 24.883 54.584 26.3477L54.7295 26.9844L56.9893 37.8027L56.9912 37.8105C57.0535 38.0845 56.9831 38.3865 56.7939 38.6377C56.5852 38.8692 56.3045 38.9999 55.999 39H23.999C23.6884 39 23.4157 38.8672 23.2334 38.6328L23.2246 38.6221C23.064 38.427 22.9829 38.1558 23.0088 37.8994L23.0264 37.791L23.0283 37.7822L25.2881 26.9834C25.6531 25.257 26.1892 23.6941 27.2969 22.5566C28.3877 21.4365 30.103 20.6602 32.9785 20.6602ZM32.9785 22.6602C30.9071 22.6602 29.5759 23.1026 28.7031 23.999C27.8528 24.8724 27.5278 26.096 27.25 27.3955V27.3965L25.3496 36.3965L25.2217 37H54.7539L54.6279 36.3975L52.748 27.3975V27.3955L52.6406 26.9121C52.3807 25.7956 52.0387 24.7632 51.2949 23.999C50.4222 23.1026 49.0901 22.6602 47.0186 22.6602H32.9785Z" fill="#494949" stroke="#494949"/>
<path d="M27.2393 37H52.7588C55.8777 37 57.5293 37.8518 58.46 38.9893C59.4139 40.1554 59.7018 41.723 59.8613 43.3682L60.9814 55.5459C61.1007 56.841 60.7082 58.135 59.8809 59.1445L59.71 59.3428C58.7464 60.3972 57.3611 61 55.9189 61H52.1592C50.6432 61 49.8173 60.5693 49.3203 60.0664C48.8035 59.5432 48.5766 58.8826 48.374 58.2646V58.2617L47.9736 57.0615L47.9727 57.0586L47.791 56.5391C47.7326 56.3787 47.6752 56.232 47.6152 56.1016C47.4924 55.8344 47.3389 55.5867 47.0986 55.3975C46.8559 55.2065 46.5719 55.1119 46.2559 55.0615C45.9466 55.0123 45.5709 55 45.1191 55H34.8789C33.9914 55 33.3358 55.0725 32.8691 55.457C32.6331 55.6516 32.4786 55.897 32.3574 56.1602C32.2395 56.4163 32.1365 56.7251 32.0244 57.0615L31.626 58.2598C31.4115 58.893 31.1857 59.552 30.6709 60.0732C30.1773 60.573 29.3565 61 27.8389 61H24.0791C22.637 61 21.2516 60.3972 20.2881 59.3428H20.2891C19.3449 58.3078 18.8894 56.9274 19.0166 55.5459H19.0176L20.1367 43.3662V43.3652C20.2861 41.7225 20.5753 40.1548 21.5312 38.9893C22.4644 37.8517 24.1205 37 27.2393 37ZM27.2393 39.0195C25.1948 39.0195 23.9087 39.3671 23.1416 40.2246C22.3973 41.0569 22.2583 42.262 22.1416 43.5742L21.0215 55.7539V55.7568C20.9497 56.5943 21.215 57.3944 21.792 58.0195V58.0186C22.375 58.6702 23.2326 59.0195 24.0996 59.0195H27.8594C28.1208 59.0195 28.3535 59.0192 28.5439 58.998C28.7402 58.9762 28.9527 58.9272 29.1426 58.7881C29.3315 58.6496 29.4417 58.4637 29.5215 58.2881C29.5988 58.1177 29.6716 57.9005 29.7529 57.6611L29.7539 57.6562L30.1543 56.4355L30.1562 56.4287C30.4081 55.6228 30.6901 54.7906 31.3359 54.1426C31.9623 53.5143 32.9968 53.0001 34.8789 53H45.1191C46.8666 53 47.8558 53.3883 48.4932 53.9502C49.1456 54.5254 49.507 55.3458 49.8652 56.4004L50.2852 57.6396C50.3665 57.8836 50.4388 58.1038 50.5156 58.2764C50.5947 58.4541 50.704 58.6424 50.8926 58.7832C51.0829 58.9253 51.2958 58.9757 51.4932 58.998C51.6841 59.0197 51.9175 59.0195 52.1787 59.0195H55.9395C56.8155 59.0195 57.6494 58.6639 58.2461 58.0195H58.2471C58.8241 57.3944 59.0894 56.5943 59.0176 55.7568V55.7539L57.8975 43.5742L57.8965 43.5723L57.8477 43.0859C57.725 41.9647 57.5323 40.9519 56.8818 40.2246C56.1151 39.3675 54.8343 39.0195 52.7988 39.0195H27.2393Z" fill="#494949" stroke="#494949"/>
<path d="M21.999 31H23.999C24.5429 31 24.999 31.4561 24.999 32C24.999 32.5439 24.5429 33 23.999 33H21.999C21.4552 33 20.999 32.5439 20.999 32C20.999 31.4561 21.4552 31 21.999 31Z" fill="#494949" stroke="#494949"/>
<path d="M55.999 31H57.999C58.5429 31 58.999 31.4561 58.999 32C58.999 32.5439 58.5429 33 57.999 33H55.999C55.4552 33 54.999 32.5439 54.999 32C54.999 31.4561 55.4552 31 55.999 31Z" fill="#494949" stroke="#494949"/>
<path d="M39.999 21C40.5429 21 40.999 21.4561 40.999 22V26C40.999 26.5439 40.5429 27 39.999 27C39.4552 27 38.999 26.5439 38.999 26V22C38.999 21.4561 39.4552 21 39.999 21Z" fill="#494949" stroke="#494949"/>
<path d="M36.999 25H42.999C43.5429 25 43.999 25.4561 43.999 26C43.999 26.5439 43.5429 27 42.999 27H36.999C36.4552 27 35.999 26.5439 35.999 26C35.999 25.4561 36.4552 25 36.999 25Z" fill="#494949" stroke="#494949"/>
<path d="M27.999 45H33.999C34.5429 45 34.999 45.4561 34.999 46C34.999 46.5439 34.5429 47 33.999 47H27.999C27.4552 47 26.999 46.5439 26.999 46C26.999 45.4561 27.4552 45 27.999 45Z" fill="#494949" stroke="#494949"/>
<path d="M45.999 45H51.999C52.5429 45 52.999 45.4561 52.999 46C52.999 46.5439 52.5429 47 51.999 47H45.999C45.4552 47 44.999 46.5439 44.999 46C44.999 45.4561 45.4552 45 45.999 45Z" fill="#494949" stroke="#494949"/>
</svg>
