<svg width="80" height="80" viewBox="0 0 80 80" fill="none" xmlns="http://www.w3.org/2000/svg">
<rect x="0.5" y="0.5" width="79" height="79" rx="15.5" fill="white"/>
<rect x="0.5" y="0.5" width="79" height="79" rx="15.5" stroke="#D7D7D7"/>
<path d="M20 40.2207H54C54.5439 40.2207 55 40.6768 55 41.2207C55 41.7646 54.5439 42.2207 54 42.2207H20C19.4561 42.2207 19 41.7646 19 41.2207C19 40.6768 19.4561 40.2207 20 40.2207Z" fill="#494949" stroke="#494949"/>
<path d="M27.5605 28.0996H46.4404C49.8474 28.0997 51.9328 28.6485 53.1904 29.8926C54.4465 31.1352 55 33.1939 55 36.5596V50.8594C54.9597 54.0983 54.3901 56.0759 53.1377 57.2705C51.8792 58.4709 49.8087 58.9999 46.4404 59H27.5605C24.1534 59 22.0673 58.451 20.8096 57.207C19.5536 55.9644 19 53.9054 19 50.54V36.5596C19 33.8806 19.3104 31.8825 20.292 30.5078C21.2477 29.1694 22.9229 28.3155 25.9385 28.1387L25.9395 28.1396C26.4597 28.1196 26.9914 28.0996 27.5605 28.0996ZM27.5605 30.0996C27.0088 30.0996 26.4988 30.1196 26.0381 30.1396L26.0293 30.1406C24.2556 30.2496 22.8984 30.4911 22.0527 31.5107C21.634 32.0158 21.3748 32.6702 21.2178 33.4873C21.0611 34.3028 21 35.3133 21 36.5596V50.54C21 51.8258 21.0521 52.8797 21.2227 53.7295C21.3944 54.585 21.6945 55.2763 22.2217 55.7959C22.7481 56.3146 23.4482 56.6099 24.3154 56.7793C25.1779 56.9477 26.2498 57 27.5605 57H46.4404C47.736 57 48.7944 56.9499 49.6475 56.79C50.5042 56.6295 51.1982 56.3503 51.7246 55.8574C52.2538 55.3619 52.5601 54.7001 52.7412 53.8818C52.8758 53.2736 52.9458 52.5571 52.9785 51.7217L53 50.8457V36.5596C53 35.2737 52.9479 34.2199 52.7773 33.3701C52.6056 32.5145 52.3055 31.8233 51.7783 31.3037C51.2519 30.7849 50.5519 30.4897 49.6846 30.3203C48.8222 30.1519 47.751 30.0996 46.4404 30.0996H27.5605Z" fill="#494949" stroke="#494949"/>
<path d="M33.5605 21H52.4404C55.8474 21.0001 57.9328 21.5489 59.1904 22.793C60.4465 24.0356 61 26.0943 61 29.46V43.4404C61 46.1193 60.6895 48.1176 59.708 49.4922C58.7525 50.8302 57.0777 51.6833 54.0635 51.8604H54C53.7345 51.8604 53.4881 51.7604 53.334 51.6064L53.3271 51.6006L53.3213 51.5947L53.25 51.5205C53.0922 51.3396 53.0001 51.1037 53 50.8604V36.5596C53 35.2738 52.9479 34.2199 52.7773 33.3701C52.6056 32.5146 52.3055 31.8233 51.7783 31.3037C51.2519 30.785 50.5518 30.4897 49.6846 30.3203C48.8222 30.1519 47.751 30.0996 46.4404 30.0996H27.5605C27.0088 30.0996 26.4988 30.1206 26.0381 30.1406H26.0352C25.7833 30.1532 25.5118 30.0515 25.3008 29.8545C25.1129 29.679 25.0015 29.4183 25 29.126C25.0397 25.8941 25.6094 23.9205 26.8623 22.7275C28.1209 21.5293 30.192 21 33.5605 21ZM33.5605 23C32.4141 23 31.4553 23.0382 30.6621 23.1562C29.8693 23.2742 29.2061 23.4766 28.6729 23.8271C27.5662 24.5547 27.1934 25.7977 27.0615 27.5625L27.0215 28.0996H46.4404C49.8473 28.0997 51.9328 28.6487 53.1904 29.8926C54.4464 31.1352 55 33.1942 55 36.5596V49.7988L55.5889 49.6924C56.8308 49.4676 57.7533 49.0059 58.3125 47.9482C58.8362 46.9574 59 45.5074 59 43.4404V29.46C59 28.1741 58.9479 27.1203 58.7773 26.2705C58.6056 25.4149 58.3055 24.7237 57.7783 24.2041C57.2519 23.6853 56.5519 23.3901 55.6846 23.2207C54.8222 23.0523 53.751 23 52.4404 23H33.5605Z" fill="#494949" stroke="#494949"/>
<path d="M26.4805 50.6191H29.9209C30.4646 50.6193 30.9209 51.0754 30.9209 51.6191C30.9209 52.1672 30.4802 52.6189 29.9209 52.6191H26.4805C25.9366 52.6191 25.4805 52.163 25.4805 51.6191C25.4805 51.0753 25.9366 50.6191 26.4805 50.6191Z" fill="#494949" stroke="#494949"/>
<path d="M34.2197 50.6191H41.0996C41.6435 50.6191 42.0996 51.0753 42.0996 51.6191C42.0996 52.1674 41.6591 52.6191 41.0996 52.6191H34.2197C33.6759 52.6191 33.2197 52.163 33.2197 51.6191C33.2197 51.0753 33.6759 50.6191 34.2197 50.6191Z" fill="#494949" stroke="#494949"/>
</svg>
