<svg width="136" height="24" viewBox="0 0 136 24" fill="none" xmlns="http://www.w3.org/2000/svg">
<path d="M125.73 3.51063L127.49 7.03063C127.73 7.52063 128.37 7.99062 128.91 8.08063L132.1 8.61062C134.14 8.95062 134.62 10.4306 133.15 11.8906L130.67 14.3706C130.25 14.7906 130.02 15.6006 130.15 16.1806L130.86 19.2506C131.42 21.6806 130.13 22.6206 127.98 21.3506L124.99 19.5806C124.45 19.2606 123.56 19.2606 123.01 19.5806L120.02 21.3506C117.88 22.6206 116.58 21.6706 117.14 19.2506L117.85 16.1806C117.98 15.6006 117.75 14.7906 117.33 14.3706L114.85 11.8906C113.39 10.4306 113.86 8.95062 115.9 8.61062L119.09 8.08063C119.62 7.99062 120.26 7.52063 120.5 7.03063L122.26 3.51063C123.22 1.60063 124.78 1.60063 125.73 3.51063Z" fill="#D7D7D7"/>
<path d="M97.7299 3.51063L99.4899 7.03063C99.7299 7.52063 100.37 7.99062 100.91 8.08063L104.1 8.61062C106.14 8.95062 106.62 10.4306 105.15 11.8906L102.67 14.3706C102.25 14.7906 102.02 15.6006 102.15 16.1806L102.86 19.2506C103.42 21.6806 102.13 22.6206 99.9799 21.3506L96.9899 19.5806C96.4499 19.2606 95.5599 19.2606 95.0099 19.5806L92.0199 21.3506C89.8799 22.6206 88.5799 21.6706 89.1399 19.2506L89.8499 16.1806C89.9799 15.6006 89.7499 14.7906 89.3299 14.3706L86.8499 11.8906C85.3899 10.4306 85.8599 8.95062 87.8999 8.61062L91.0899 8.08063C91.6199 7.99062 92.2599 7.52063 92.4999 7.03063L94.2599 3.51063C95.2199 1.60063 96.7799 1.60063 97.7299 3.51063Z" fill="#FDB713"/>
<path d="M69.7299 3.51063L71.4899 7.03063C71.7299 7.52063 72.3699 7.99062 72.9099 8.08063L76.0999 8.61062C78.1399 8.95062 78.6199 10.4306 77.1499 11.8906L74.6699 14.3706C74.2499 14.7906 74.0199 15.6006 74.1499 16.1806L74.8599 19.2506C75.4199 21.6806 74.1299 22.6206 71.9799 21.3506L68.9899 19.5806C68.4499 19.2606 67.5599 19.2606 67.0099 19.5806L64.0199 21.3506C61.8799 22.6206 60.5799 21.6706 61.1399 19.2506L61.8499 16.1806C61.9799 15.6006 61.7499 14.7906 61.3299 14.3706L58.8499 11.8906C57.3899 10.4306 57.8599 8.95062 59.8999 8.61062L63.0899 8.08063C63.6199 7.99062 64.2599 7.52063 64.4999 7.03063L66.2599 3.51063C67.2199 1.60063 68.7799 1.60063 69.7299 3.51063Z" fill="#FDB713"/>
<path d="M41.7299 3.51063L43.4899 7.03063C43.7299 7.52063 44.3699 7.99062 44.9099 8.08063L48.0999 8.61062C50.1399 8.95062 50.6199 10.4306 49.1499 11.8906L46.6699 14.3706C46.2499 14.7906 46.0199 15.6006 46.1499 16.1806L46.8599 19.2506C47.4199 21.6806 46.1299 22.6206 43.9799 21.3506L40.9899 19.5806C40.4499 19.2606 39.5599 19.2606 39.0099 19.5806L36.0199 21.3506C33.8799 22.6206 32.5799 21.6706 33.1399 19.2506L33.8499 16.1806C33.9799 15.6006 33.7499 14.7906 33.3299 14.3706L30.8499 11.8906C29.3899 10.4306 29.8599 8.95062 31.8999 8.61062L35.0899 8.08063C35.6199 7.99062 36.2599 7.52063 36.4999 7.03063L38.2599 3.51063C39.2199 1.60063 40.7799 1.60063 41.7299 3.51063Z" fill="#FDB713"/>
<path d="M13.7299 3.51063L15.4899 7.03063C15.7299 7.52063 16.3699 7.99062 16.9099 8.08063L20.0999 8.61062C22.1399 8.95062 22.6199 10.4306 21.1499 11.8906L18.6699 14.3706C18.2499 14.7906 18.0199 15.6006 18.1499 16.1806L18.8599 19.2506C19.4199 21.6806 18.1299 22.6206 15.9799 21.3506L12.9899 19.5806C12.4499 19.2606 11.5599 19.2606 11.0099 19.5806L8.01991 21.3506C5.87991 22.6206 4.57991 21.6706 5.13991 19.2506L5.84991 16.1806C5.97991 15.6006 5.74991 14.7906 5.32991 14.3706L2.84991 11.8906C1.38991 10.4306 1.85991 8.95062 3.89991 8.61062L7.08991 8.08063C7.61991 7.99062 8.25991 7.52063 8.49991 7.03063L10.2599 3.51063C11.2199 1.60063 12.7799 1.60063 13.7299 3.51063Z" fill="#FDB713"/>
</svg>
