<svg width="17" height="18" viewBox="0 0 17 18" fill="none" xmlns="http://www.w3.org/2000/svg">
<path d="M4.79167 3.75C4.45 3.75 4.16667 3.46667 4.16667 3.125V0.625C4.16667 0.283333 4.45 0 4.79167 0C5.13333 0 5.41667 0.283333 5.41667 0.625V3.125C5.41667 3.46667 5.13333 3.75 4.79167 3.75Z" fill="#727272"/>
<path d="M11.4583 3.75C11.1167 3.75 10.8333 3.46667 10.8333 3.125V0.625C10.8333 0.283333 11.1167 0 11.4583 0C11.8 0 12.0833 0.283333 12.0833 0.625V3.125C12.0833 3.46667 11.8 3.75 11.4583 3.75Z" fill="#727272"/>
<path d="M5.20833 11.0417C5.1 11.0417 4.99167 11.0167 4.89167 10.975C4.78333 10.9334 4.7 10.875 4.61667 10.8C4.46667 10.6417 4.375 10.4333 4.375 10.2083C4.375 10.1 4.4 9.99167 4.44167 9.89167C4.48333 9.79167 4.54167 9.70001 4.61667 9.61668C4.7 9.54168 4.78333 9.48333 4.89167 9.44166C5.19167 9.31666 5.56667 9.38335 5.8 9.61668C5.95 9.77501 6.04167 9.99167 6.04167 10.2083C6.04167 10.2583 6.03333 10.3167 6.025 10.375C6.01667 10.425 6 10.475 5.975 10.525C5.95833 10.575 5.93333 10.625 5.9 10.675C5.875 10.7167 5.83333 10.7583 5.8 10.8C5.64167 10.95 5.425 11.0417 5.20833 11.0417Z" fill="#727272"/>
<path d="M8.125 11.0417C8.01667 11.0417 7.90833 11.0167 7.80833 10.975C7.7 10.9333 7.61667 10.875 7.53333 10.8C7.38333 10.6417 7.29167 10.4333 7.29167 10.2083C7.29167 10.1 7.31667 9.99166 7.35833 9.89166C7.4 9.79166 7.45833 9.7 7.53333 9.61667C7.61667 9.54167 7.7 9.48332 7.80833 9.44165C8.10833 9.30832 8.48333 9.38334 8.71667 9.61667C8.86667 9.775 8.95833 9.99166 8.95833 10.2083C8.95833 10.2583 8.95 10.3167 8.94167 10.375C8.93333 10.425 8.91667 10.475 8.89166 10.525C8.875 10.575 8.85 10.625 8.81667 10.675C8.79167 10.7167 8.75 10.7583 8.71667 10.8C8.55833 10.95 8.34167 11.0417 8.125 11.0417Z" fill="#727272"/>
<path d="M11.0417 11.0417C10.9333 11.0417 10.825 11.0167 10.725 10.975C10.6167 10.9333 10.5333 10.875 10.45 10.8C10.4167 10.7583 10.3833 10.7167 10.35 10.675C10.3167 10.625 10.2917 10.575 10.275 10.525C10.25 10.475 10.2333 10.425 10.225 10.375C10.2167 10.3167 10.2083 10.2583 10.2083 10.2083C10.2083 9.99166 10.3 9.775 10.45 9.61667C10.5333 9.54167 10.6167 9.48332 10.725 9.44165C11.0333 9.30832 11.4 9.38334 11.6333 9.61667C11.7833 9.775 11.875 9.99166 11.875 10.2083C11.875 10.2583 11.8667 10.3167 11.8583 10.375C11.85 10.425 11.8333 10.475 11.8083 10.525C11.7917 10.575 11.7667 10.625 11.7333 10.675C11.7083 10.7167 11.6667 10.7583 11.6333 10.8C11.475 10.95 11.2583 11.0417 11.0417 11.0417Z" fill="#727272"/>
<path d="M5.20833 13.9583C5.1 13.9583 4.99167 13.9333 4.89167 13.8917C4.79167 13.85 4.7 13.7917 4.61667 13.7167C4.46667 13.5583 4.375 13.3417 4.375 13.125C4.375 13.0167 4.4 12.9083 4.44167 12.8083C4.48333 12.7 4.54167 12.6083 4.61667 12.5333C4.925 12.225 5.49167 12.225 5.8 12.5333C5.95 12.6917 6.04167 12.9083 6.04167 13.125C6.04167 13.3417 5.95 13.5583 5.8 13.7167C5.64167 13.8667 5.425 13.9583 5.20833 13.9583Z" fill="#727272"/>
<path d="M8.125 13.9583C7.90833 13.9583 7.69167 13.8667 7.53333 13.7167C7.38333 13.5583 7.29167 13.3417 7.29167 13.125C7.29167 13.0167 7.31667 12.9083 7.35833 12.8083C7.4 12.7 7.45833 12.6083 7.53333 12.5333C7.84167 12.225 8.40833 12.225 8.71667 12.5333C8.79167 12.6083 8.85 12.7 8.89166 12.8083C8.93333 12.9083 8.95833 13.0167 8.95833 13.125C8.95833 13.3417 8.86667 13.5583 8.71667 13.7167C8.55833 13.8667 8.34167 13.9583 8.125 13.9583Z" fill="#727272"/>
<path d="M11.0417 13.9584C10.825 13.9584 10.6083 13.8667 10.45 13.7167C10.375 13.6417 10.3167 13.55 10.275 13.4417C10.2333 13.3417 10.2083 13.2334 10.2083 13.125C10.2083 13.0167 10.2333 12.9084 10.275 12.8084C10.3167 12.7 10.375 12.6084 10.45 12.5334C10.6417 12.3417 10.9333 12.25 11.2 12.3084C11.2583 12.3167 11.3083 12.3334 11.3583 12.3584C11.4083 12.375 11.4583 12.4 11.5083 12.4334C11.55 12.4584 11.5917 12.5 11.6333 12.5334C11.7833 12.6917 11.875 12.9084 11.875 13.125C11.875 13.3417 11.7833 13.5584 11.6333 13.7167C11.475 13.8667 11.2583 13.9584 11.0417 13.9584Z" fill="#727272"/>
<path d="M15.2083 7.15831H1.04167C0.7 7.15831 0.416667 6.87497 0.416667 6.53331C0.416667 6.19164 0.7 5.90831 1.04167 5.90831H15.2083C15.55 5.90831 15.8333 6.19164 15.8333 6.53331C15.8333 6.87497 15.55 7.15831 15.2083 7.15831Z" fill="#727272"/>
<path d="M11.4583 17.9167H4.79167C1.75 17.9167 0 16.1667 0 13.125V6.04167C0 3 1.75 1.25 4.79167 1.25H11.4583C14.5 1.25 16.25 3 16.25 6.04167V13.125C16.25 16.1667 14.5 17.9167 11.4583 17.9167ZM4.79167 2.5C2.40833 2.5 1.25 3.65833 1.25 6.04167V13.125C1.25 15.5083 2.40833 16.6667 4.79167 16.6667H11.4583C13.8417 16.6667 15 15.5083 15 13.125V6.04167C15 3.65833 13.8417 2.5 11.4583 2.5H4.79167Z" fill="#727272"/>
</svg>
